<svg id="White_LOgo" data-name="White LOgo" xmlns="http://www.w3.org/2000/svg" width="114.032" height="97.245" viewBox="0 0 114.032 97.245">
  <g id="Сгруппировать_1281" data-name="Сгруппировать 1281" transform="translate(0 0)">
    <path id="Контур_3193" data-name="Контур 3193" d="M274.836,269.073a5.7,5.7,0,0,0-4-1.63h-40.71a5.725,5.725,0,0,0-5.725,5.725v40.71c0,.091.01.179.014.269Z" transform="translate(-190.719 -267.443)" fill="#fff"/>
    <path id="Контур_3194" data-name="Контур 3194" d="M283.187,323.154a5.725,5.725,0,0,0,5.725-5.725v-40.71a5.7,5.7,0,0,0-1.71-4.078l-44.725,50.513Z" transform="translate(-203.067 -270.995)" fill="#fff"/>
    <path id="Контур_3195" data-name="Контур 3195" d="M137.422,528.2H118.414a.358.358,0,0,0-.358.358v13.772a.358.358,0,0,0,.358.358H120.6a.358.358,0,0,0,.358-.358v-5.08a.358.358,0,0,1,.358-.358h13.659a.357.357,0,0,0,.358-.358v-2.182a.358.358,0,0,0-.358-.358H121.312a.357.357,0,0,1-.358-.358v-2.182a.358.358,0,0,1,.358-.358H135.05a.356.356,0,0,0,.242-.094l2.372-2.182A.358.358,0,0,0,137.422,528.2Z" transform="translate(-118.056 -445.605)" fill="#fff"/>
    <path id="Контур_3196" data-name="Контур 3196" d="M433.953,469.563h-2.183a.358.358,0,0,0-.358.358v9.793a.358.358,0,0,1-.572.286l-13.82-10.365a.359.359,0,0,0-.215-.072h-2.421a.358.358,0,0,0-.358.358v13.773a.358.358,0,0,0,.358.358h2.182a.358.358,0,0,0,.358-.358V473.9a.358.358,0,0,1,.572-.286l13.82,10.365a.357.357,0,0,0,.214.071h2.421a.357.357,0,0,0,.358-.358V469.921A.358.358,0,0,0,433.953,469.563Z" transform="translate(-320.279 -405.542)" fill="#fff"/>
    <rect id="Прямоугольник_71" data-name="Прямоугольник 71" width="2.898" height="14.488" rx="1.126" transform="translate(22.146 82.732)" fill="#fff"/>
    <path id="Контур_3197" data-name="Контур 3197" d="M267.059,528.338a.357.357,0,0,0-.252-.1H249.926a.357.357,0,0,0-.357.357v11.233H232.911a.358.358,0,0,1-.358-.357V528.591a.358.358,0,0,0-.358-.358h-2.183a.358.358,0,0,0-.358.358v11.233H209.766a.358.358,0,0,1-.358-.358v-2.182a.358.358,0,0,1,.358-.358h16.671a.358.358,0,0,0,.358-.358v-2.182a.358.358,0,0,0-.358-.358H209.766a.358.358,0,0,1-.358-.358v-2.182a.358.358,0,0,1,.358-.358h16.671a.358.358,0,0,0,.358-.358v-2.182a.358.358,0,0,0-.358-.358H206.869a.358.358,0,0,0-.358.358v13.773a.358.358,0,0,0,.358.358h59.938a.355.355,0,0,0,.252-.1l2.689-2.689a.358.358,0,0,0,.1-.252v-8.4a.357.357,0,0,0-.1-.252Zm-.1,11.129a.357.357,0,0,1-.357.357H252.823a.357.357,0,0,1-.357-.357v-7.979a.357.357,0,0,1,.357-.357H266.6a.357.357,0,0,1,.357.357Z" transform="translate(-178.493 -445.629)" fill="#fff"/>
    <path id="Контур_3198" data-name="Контур 3198" d="M433.951,534.512H417.285a.36.36,0,0,1-.36-.36v-2.178a.36.36,0,0,1,.36-.36H431.02a.36.36,0,0,0,.244-.095l2.367-2.177a.36.36,0,0,0-.244-.625h-19a.36.36,0,0,0-.36.36v7.972a.36.36,0,0,0,.36.36h16.666a.36.36,0,0,1,.36.36v2.178a.36.36,0,0,1-.36.36H414.387a.36.36,0,0,0-.36.36v2.177a.36.36,0,0,0,.36.36h19.564a.36.36,0,0,0,.36-.36v-7.972A.36.36,0,0,0,433.951,534.512Z" transform="translate(-320.279 -445.959)" fill="#fff"/>
    <path id="Контур_3199" data-name="Контур 3199" d="M151.7,478.455l2.7,5.4a.361.361,0,0,0,.323.2h2.439a.361.361,0,0,0,.323-.522l-2.376-4.751a.361.361,0,0,1,.323-.522h1.953a.361.361,0,0,0,.361-.361v-7.971a.361.361,0,0,0-.361-.361H147.266l-2.571,2.9h9.787a.361.361,0,0,1,.361.361V475a.361.361,0,0,1-.361.361H132.288a.357.357,0,0,0-.242.095l-2.365,2.182a.358.358,0,0,0,.243.62h5.315a.358.358,0,0,1,.358.358V480.8a.357.357,0,0,1-.358.358H121.467a.358.358,0,0,1-.358-.358v-7.978a.358.358,0,0,1,.358-.358h7.7l3.241-2.9H118.569a.358.358,0,0,0-.358.358v13.773a.358.358,0,0,0,.358.358h19.568a.358.358,0,0,0,.358-.358v-5.438h12.88A.361.361,0,0,1,151.7,478.455Z" transform="translate(-118.162 -405.542)" fill="#fff"/>
    <path id="Контур_3200" data-name="Контур 3200" d="M281.034,469.925v5.433H255.819a.358.358,0,0,1-.358-.358v-2.182a.358.358,0,0,1,.358-.358h16.669a.358.358,0,0,0,.358-.358v-2.182a.358.358,0,0,0-.358-.358H252.921a.358.358,0,0,0-.358.358v13.772a.358.358,0,0,0,.358.358h19.567a.358.358,0,0,0,.358-.358v-2.181a.358.358,0,0,0-.358-.358H255.819a.358.358,0,0,1-.358-.358v-2.181a.358.358,0,0,1,.358-.358h25.215v5.434a.361.361,0,0,0,.361.361h19.56a.361.361,0,0,0,.362-.361v-2.174a.362.362,0,0,0-.362-.362H284.293a.361.361,0,0,1-.361-.361v-2.174a.362.362,0,0,1,.361-.362h16.662a.361.361,0,0,0,.362-.361V475.72a.362.362,0,0,0-.362-.362H284.293a.361.361,0,0,1-.361-.362v-2.174a.361.361,0,0,1,.361-.362h16.662a.362.362,0,0,0,.362-.361v-2.174a.362.362,0,0,0-.362-.362H281.4A.362.362,0,0,0,281.034,469.925Z" transform="translate(-209.958 -405.542)" fill="#fff"/>
  </g>
</svg>
