<svg id="LOGO" xmlns="http://www.w3.org/2000/svg" width="142.113" height="121.193" viewBox="0 0 142.113 121.193">
  <g id="Сгруппировать_1281" data-name="Сгруппировать 1281">
    <path id="Контур_3193" data-name="Контур 3193" d="M287.255,269.475a7.107,7.107,0,0,0-4.981-2.032H231.538a7.134,7.134,0,0,0-7.134,7.134v50.735c0,.113.012.223.017.335Z" transform="translate(-182.423 -267.443)" fill="#4f9b7f"/>
    <path id="Контур_3194" data-name="Контур 3194" d="M293.212,335.593a7.134,7.134,0,0,0,7.134-7.134V277.723a7.109,7.109,0,0,0-2.131-5.082l-55.739,62.952Z" transform="translate(-193.362 -270.589)" fill="#4f9b7f"/>
    <path id="Контур_3195" data-name="Контур 3195" d="M142.191,528.2H118.5a.446.446,0,0,0-.446.446v17.164a.446.446,0,0,0,.446.446h2.72a.446.446,0,0,0,.446-.446v-6.331a.446.446,0,0,1,.446-.446h17.022a.445.445,0,0,0,.446-.446v-2.719a.446.446,0,0,0-.446-.446H122.114a.445.445,0,0,1-.446-.446v-2.72a.446.446,0,0,1,.446-.446h17.122a.444.444,0,0,0,.3-.118l2.956-2.719A.446.446,0,0,0,142.191,528.2Z" transform="translate(-118.056 -425.266)" fill="#4f9b7f"/>
    <path id="Контур_3196" data-name="Контур 3196" d="M438.86,469.563h-2.72a.446.446,0,0,0-.446.446v12.2a.446.446,0,0,1-.713.357l-17.223-12.918a.446.446,0,0,0-.268-.089h-3.017a.446.446,0,0,0-.446.446v17.164a.446.446,0,0,0,.446.446h2.72a.446.446,0,0,0,.446-.446v-12.2a.446.446,0,0,1,.713-.356l17.224,12.918a.445.445,0,0,0,.267.089h3.017a.446.446,0,0,0,.446-.446V470.009A.446.446,0,0,0,438.86,469.563Z" transform="translate(-297.193 -389.777)" fill="#4f9b7f"/>
    <rect id="Прямоугольник_71" data-name="Прямоугольник 71" width="3.612" height="18.056" rx="1.126" transform="translate(27.6 103.105)" fill="#4f9b7f"/>
    <path id="Контур_3197" data-name="Контур 3197" d="M281.969,528.363a.444.444,0,0,0-.314-.13H260.617a.445.445,0,0,0-.445.445v14h-20.76a.446.446,0,0,1-.446-.445V528.679a.446.446,0,0,0-.446-.446H235.8a.446.446,0,0,0-.446.446v14H210.568a.446.446,0,0,1-.446-.446v-2.719a.446.446,0,0,1,.446-.446h20.776a.446.446,0,0,0,.446-.446V535.9a.446.446,0,0,0-.446-.446H210.568a.446.446,0,0,1-.446-.446v-2.72a.446.446,0,0,1,.446-.446h20.776a.446.446,0,0,0,.446-.446v-2.72a.446.446,0,0,0-.446-.446H206.957a.446.446,0,0,0-.446.446v17.164a.446.446,0,0,0,.446.446h74.7a.443.443,0,0,0,.314-.13l3.351-3.351a.445.445,0,0,0,.13-.314V532.029a.445.445,0,0,0-.13-.315Zm-.13,13.87a.444.444,0,0,1-.445.445H264.228a.444.444,0,0,1-.444-.445v-9.944a.445.445,0,0,1,.444-.445h17.166a.445.445,0,0,1,.445.445Z" transform="translate(-171.594 -425.287)" fill="#4f9b7f"/>
    <path id="Контур_3198" data-name="Контур 3198" d="M438.857,535.939h-20.77a.449.449,0,0,1-.448-.449v-2.714a.449.449,0,0,1,.448-.449h17.118a.448.448,0,0,0,.3-.118l2.95-2.713a.449.449,0,0,0-.3-.779H414.476a.449.449,0,0,0-.449.449V539.1a.449.449,0,0,0,.449.449h20.77a.449.449,0,0,1,.449.449v2.714a.449.449,0,0,1-.449.449h-20.77a.449.449,0,0,0-.449.449v2.713a.449.449,0,0,0,.449.449h24.381a.449.449,0,0,0,.449-.449v-9.935A.449.449,0,0,0,438.857,535.939Z" transform="translate(-297.193 -425.58)" fill="#4f9b7f"/>
    <path id="Контур_3199" data-name="Контур 3199" d="M159.943,480.645l3.362,6.725a.45.45,0,0,0,.4.249h3.04a.45.45,0,0,0,.4-.651l-2.961-5.92a.45.45,0,0,1,.4-.651h2.434a.45.45,0,0,0,.45-.45v-9.934a.45.45,0,0,0-.45-.45h-12.6l-3.2,3.611h12.2a.45.45,0,0,1,.45.45v2.712a.45.45,0,0,1-.45.45H135.755a.445.445,0,0,0-.3.118l-2.947,2.719a.446.446,0,0,0,.3.773h6.623a.446.446,0,0,1,.446.446v2.719a.446.446,0,0,1-.446.446H122.268a.446.446,0,0,1-.446-.446V473.62a.446.446,0,0,1,.446-.446h9.6l4.039-3.611H118.657a.446.446,0,0,0-.446.446v17.164a.446.446,0,0,0,.446.446h24.387a.446.446,0,0,0,.446-.446V480.4h16.051A.45.45,0,0,1,159.943,480.645Z" transform="translate(-118.15 -389.777)" fill="#4f9b7f"/>
    <path id="Контур_3200" data-name="Контур 3200" d="M288.045,470.014v6.772H256.621a.446.446,0,0,1-.446-.446V473.62a.446.446,0,0,1,.446-.446H277.4a.446.446,0,0,0,.446-.446v-2.719a.446.446,0,0,0-.446-.446H253.009a.446.446,0,0,0-.446.446v17.164a.446.446,0,0,0,.446.446H277.4a.446.446,0,0,0,.446-.446v-2.719a.446.446,0,0,0-.446-.446H256.621a.446.446,0,0,1-.446-.446v-2.719a.446.446,0,0,1,.446-.446h31.424v6.772a.45.45,0,0,0,.45.45h24.377a.45.45,0,0,0,.451-.45v-2.71a.451.451,0,0,0-.451-.451H292.107a.45.45,0,0,1-.45-.45v-2.71a.451.451,0,0,1,.45-.451h20.766a.451.451,0,0,0,.451-.45v-2.71a.451.451,0,0,0-.451-.451H292.107a.451.451,0,0,1-.45-.451v-2.71a.451.451,0,0,1,.45-.451h20.766a.451.451,0,0,0,.451-.45v-2.71a.451.451,0,0,0-.451-.451H288.5A.451.451,0,0,0,288.045,470.014Z" transform="translate(-199.467 -389.777)" fill="#4f9b7f"/>
  </g>
</svg>
