<?xml version="1.0" encoding="utf-8"?><svg xmlns="http://www.w3.org/2000/svg" xmlns:xlink="http://www.w3.org/1999/xlink"><symbol viewBox="0 0 25.591 17.914" id="icon-arrow_left" xmlns="http://www.w3.org/2000/svg"><path data-name="Контур 8264" d="M8.957 17.914l1.8-1.8L4.9 10.236h20.69V7.677H4.9L10.774 1.8 8.957 0 0 8.957z"/></symbol><symbol viewBox="0 0 24.512 24.513" id="icon-close" xmlns="http://www.w3.org/2000/svg"><g data-name="Сгруппировать 8546"><path data-name="Контур 8258" d="M0 21.766l2.746 2.747L24.512 2.747 21.765.001z"/><path data-name="Контур 8259" d="M21.766 24.512l2.747-2.746L2.747 0 .001 2.747z"/></g></symbol><symbol viewBox="0 0 9.403 15.227" id="icon-expand-right" xmlns="http://www.w3.org/2000/svg"><path data-name="Контур 8258" d="M0 13.438l5.812-5.824L0 1.79 1.789 0l7.613 7.613-7.613 7.613z"/></symbol><symbol viewBox="0 0 6.564 14.068" id="icon-facebook" xmlns="http://www.w3.org/2000/svg"><path data-name="Контур 56" d="M4.365 14.068H1.454V7.034H0V4.609h1.454V3.154C1.454 1.177 2.276 0 4.608 0H6.55v2.425H5.337c-.909 0-.969.339-.969.971v1.213h2.2l-.261 2.425H4.365z"/></symbol><symbol viewBox="0 0 16 16" id="icon-instagram" xmlns="http://www.w3.org/2000/svg"><path data-name="Контур 2357" d="M5.333 8A2.667 2.667 0 118 10.667 2.667 2.667 0 015.333 8M3.891 8a4.108 4.108 0 104.108-4.108A4.108 4.108 0 003.891 8m7.419-4.27a.96.96 0 10.96-.96.96.96 0 00-.96.96M4.767 14.512a4.419 4.419 0 01-1.485-.275 2.651 2.651 0 01-1.518-1.518 4.427 4.427 0 01-.275-1.486c-.038-.844-.047-1.1-.047-3.233s.008-2.389.047-3.233a4.428 4.428 0 01.275-1.485 2.649 2.649 0 011.518-1.518 4.425 4.425 0 011.485-.276c.843-.038 1.1-.047 3.233-.047s2.389.008 3.233.047a4.428 4.428 0 011.485.276 2.648 2.648 0 011.518 1.518 4.427 4.427 0 01.276 1.485c.038.844.046 1.1.046 3.233s-.008 2.389-.046 3.233a4.427 4.427 0 01-.276 1.486 2.65 2.65 0 01-1.518 1.518 4.421 4.421 0 01-1.485.275c-.844.039-1.1.047-3.233.047s-2.389-.008-3.233-.047M4.702.045A5.865 5.865 0 002.76.417a4.09 4.09 0 00-2.34 2.34 5.86 5.86 0 00-.375 1.945c-.039.853-.048 1.126-.048 3.3s.009 2.445.048 3.3a5.856 5.856 0 00.372 1.942 4.091 4.091 0 002.34 2.34 5.867 5.867 0 001.942.372c.853.039 1.126.048 3.3.048s2.445-.009 3.3-.048a5.87 5.87 0 001.942-.372 4.091 4.091 0 002.339-2.34 5.866 5.866 0 00.372-1.942c.039-.853.048-1.126.048-3.3s-.009-2.445-.048-3.3a5.87 5.87 0 00-.372-1.942A4.091 4.091 0 0013.241.42a5.867 5.867 0 00-1.943-.375c-.853-.039-1.126-.048-3.3-.048s-2.445.009-3.3.048"/></symbol><symbol viewBox="0 0 19.787 29.985" id="icon-play" xmlns="http://www.w3.org/2000/svg"><path data-name="Контур 8197" d="M0 0l19.787 14.992L0 29.985z"/></symbol><symbol viewBox="0 0 33.887 33.887" id="icon-search" xmlns="http://www.w3.org/2000/svg"><path data-name="Контур 440" d="M24.219 21.312h-1.531l-.542-.523a12.613 12.613 0 10-1.356 1.356l.523.542v1.531L31 33.887 33.887 31zm-11.625 0a8.719 8.719 0 118.719-8.719 8.707 8.707 0 01-8.719 8.719z"/></symbol><symbol viewBox="0 0 13.96 16.744" id="icon-youtube" xmlns="http://www.w3.org/2000/svg"><path data-name="Контур 70" d="M3.267 6.175h.954V3.613L5.331 0h-.969l-.589 2.468h-.062L3.092 0h-.96l1.134 3.727z"/><path data-name="Контур 71" d="M5.288 5.023a1.269 1.269 0 00.334.923 1.179 1.179 0 00.889.344 1.219 1.219 0 00.906-.333 1.241 1.241 0 00.331-.919V2.687a1.147 1.147 0 00-.336-.853 1.182 1.182 0 00-.862-.33 1.3 1.3 0 00-.92.314 1.088 1.088 0 00-.342.843zm.871-2.4a.322.322 0 01.1-.241.351.351 0 01.252-.091.393.393 0 01.271.091.309.309 0 01.1.241v2.482a.4.4 0 01-.1.288.369.369 0 01-.274.1.326.326 0 01-.258-.1.421.421 0 01-.092-.29z"/><path data-name="Контур 72" d="M9.057 6.241a1.007 1.007 0 00.492-.145 1.882 1.882 0 00.488-.424v.5h.847V1.616h-.847v3.458a1.186 1.186 0 01-.263.245.448.448 0 01-.236.1.2.2 0 01-.172-.072.4.4 0 01-.053-.234V1.62h-.847v3.808a1.023 1.023 0 00.15.61.512.512 0 00.441.203z"/><path data-name="Контур 73" d="M8.449 11.154a.381.381 0 00-.177.045.619.619 0 00-.176.138v2.839a.727.727 0 00.2.161.459.459 0 00.206.049.266.266 0 00.227-.1.515.515 0 00.074-.314V11.62a.566.566 0 00-.091-.35.309.309 0 00-.263-.116z"/><path data-name="Контур 74" d="M11.563 11.171a.333.333 0 00-.29.123.735.735 0 00-.088.411v.461h.749v-.465a.726.726 0 00-.089-.411.321.321 0 00-.282-.119z"/><path data-name="Контур 75" d="M13.866 9.43a2.006 2.006 0 00-2.017-1.993q-2.264-.092-4.624-.093h-.492q-2.358 0-4.625.093A2.005 2.005 0 00.093 9.43q-.1 1.308-.093 2.614t.093 2.615a2 2 0 002.015 1.992q2.382.1 4.871.093t4.87-.093a2.005 2.005 0 002.017-1.992q.1-1.308.094-2.615t-.094-2.614zM3.022 15.044h-.955V9.765H1.08v-.9h2.928v.9h-.986zm3.393 0h-.847v-.5a1.883 1.883 0 01-.488.424 1 1 0 01-.492.144.519.519 0 01-.443-.2 1.047 1.047 0 01-.148-.611v-3.808h.847v3.492a.4.4 0 00.054.235.2.2 0 00.172.072.466.466 0 00.236-.1 1.179 1.179 0 00.262-.245v-3.458h.847zm3.259-.944a1.2 1.2 0 01-.2.743.684.684 0 01-.575.258.948.948 0 01-.443-.1 1.129 1.129 0 01-.362-.308v.351h-.855V8.868h.855v1.988a1.314 1.314 0 01.363-.316.785.785 0 01.39-.11.716.716 0 01.614.293 1.437 1.437 0 01.211.849zm3.131-1.227h-1.62v.859a1.014 1.014 0 00.085.5.3.3 0 00.285.139.333.333 0 00.294-.118 1.022 1.022 0 00.085-.519v-.316h.871v.341a1.54 1.54 0 01-.318 1.056 1.217 1.217 0 01-.952.353 1.128 1.128 0 01-.9-.375 1.526 1.526 0 01-.327-1.034v-2.045a1.339 1.339 0 01.358-.966 1.239 1.239 0 01.93-.373 1.138 1.138 0 01.892.346 1.431 1.431 0 01.312.993z"/></symbol></svg>